<svg width="601" height="450" viewBox="0 0 601 450" fill="none" xmlns="http://www.w3.org/2000/svg">
<circle cx="5.70718" cy="88.4618" r="5" transform="rotate(-8.81526 5.70718 88.4618)" fill="#DCE2EE"/>
<circle cx="14.9025" cy="147.753" r="5" transform="rotate(-8.81526 14.9025 147.753)" fill="#DCE2EE"/>
<circle cx="24.0978" cy="207.044" r="5" transform="rotate(-8.81526 24.0978 207.044)" fill="#DCE2EE"/>
<circle cx="33.2912" cy="266.336" r="5" transform="rotate(-8.81526 33.2912 266.336)" fill="#DCE2EE"/>
<circle cx="42.4865" cy="325.627" r="5" transform="rotate(-8.81526 42.4865 325.627)" fill="#DCE2EE"/>
<circle cx="51.6818" cy="384.918" r="5" transform="rotate(-8.81526 51.6818 384.918)" fill="#DCE2EE"/>
<circle cx="60.8771" cy="444.209" r="5" transform="rotate(-8.81526 60.8771 444.209)" fill="#DCE2EE"/>
<circle cx="64.9982" cy="79.267" r="5" transform="rotate(-8.81526 64.9982 79.267)" fill="#DCE2EE"/>
<circle cx="74.1935" cy="138.558" r="5" transform="rotate(-8.81526 74.1935 138.558)" fill="#DCE2EE"/>
<circle cx="83.3888" cy="197.849" r="5" transform="rotate(-8.81526 83.3888 197.849)" fill="#DCE2EE"/>
<circle cx="92.5841" cy="257.141" r="5" transform="rotate(-8.81526 92.5841 257.141)" fill="#DCE2EE"/>
<circle cx="101.777" cy="316.432" r="5" transform="rotate(-8.81526 101.777 316.432)" fill="#DCE2EE"/>
<circle cx="110.973" cy="375.723" r="5" transform="rotate(-8.81526 110.973 375.723)" fill="#DCE2EE"/>
<circle cx="120.168" cy="435.014" r="5" transform="rotate(-8.81526 120.168 435.014)" fill="#DCE2EE"/>
<circle cx="124.289" cy="70.0719" r="5" transform="rotate(-8.81526 124.289 70.0719)" fill="#DCE2EE"/>
<circle cx="133.485" cy="129.363" r="5" transform="rotate(-8.81526 133.485 129.363)" fill="#DCE2EE"/>
<circle cx="142.68" cy="188.654" r="5" transform="rotate(-8.81526 142.68 188.654)" fill="#DCE2EE"/>
<circle cx="151.875" cy="247.946" r="5" transform="rotate(-8.81526 151.875 247.946)" fill="#DCE2EE"/>
<circle cx="161.069" cy="307.237" r="5" transform="rotate(-8.81526 161.069 307.237)" fill="#DCE2EE"/>
<circle cx="170.264" cy="366.528" r="5" transform="rotate(-8.81526 170.264 366.528)" fill="#DCE2EE"/>
<circle cx="179.459" cy="425.819" r="5" transform="rotate(-8.81526 179.459 425.819)" fill="#DCE2EE"/>
<circle cx="183.58" cy="60.8771" r="5" transform="rotate(-8.81526 183.58 60.8771)" fill="#DCE2EE"/>
<circle cx="192.776" cy="120.168" r="5" transform="rotate(-8.81526 192.776 120.168)" fill="#DCE2EE"/>
<circle cx="201.971" cy="179.46" r="5" transform="rotate(-8.81526 201.971 179.46)" fill="#DCE2EE"/>
<circle cx="211.166" cy="238.751" r="5" transform="rotate(-8.81526 211.166 238.751)" fill="#DCE2EE"/>
<circle cx="220.361" cy="298.042" r="5" transform="rotate(-8.81526 220.361 298.042)" fill="#DCE2EE"/>
<circle cx="229.555" cy="357.333" r="5" transform="rotate(-8.81526 229.555 357.333)" fill="#DCE2EE"/>
<circle cx="238.75" cy="416.624" r="5" transform="rotate(-8.81526 238.75 416.624)" fill="#DCE2EE"/>
<circle cx="242.871" cy="51.682" r="5" transform="rotate(-8.81526 242.871 51.682)" fill="#DCE2EE"/>
<circle cx="252.067" cy="110.973" r="5" transform="rotate(-8.81526 252.067 110.973)" fill="#DCE2EE"/>
<circle cx="261.262" cy="170.265" r="5" transform="rotate(-8.81526 261.262 170.265)" fill="#DCE2EE"/>
<circle cx="270.457" cy="229.556" r="5" transform="rotate(-8.81526 270.457 229.556)" fill="#DCE2EE"/>
<circle cx="279.652" cy="288.847" r="5" transform="rotate(-8.81526 279.652 288.847)" fill="#DCE2EE"/>
<circle cx="288.848" cy="348.138" r="5" transform="rotate(-8.81526 288.848 348.138)" fill="#DCE2EE"/>
<circle cx="298.041" cy="407.43" r="5" transform="rotate(-8.81526 298.041 407.43)" fill="#DCE2EE"/>
<circle cx="302.164" cy="42.4872" r="5" transform="rotate(-8.81526 302.164 42.4872)" fill="#DCE2EE"/>
<circle cx="311.358" cy="101.778" r="5" transform="rotate(-8.81526 311.358 101.778)" fill="#DCE2EE"/>
<circle cx="320.553" cy="161.07" r="5" transform="rotate(-8.81526 320.553 161.07)" fill="#DCE2EE"/>
<circle cx="329.748" cy="220.361" r="5" transform="rotate(-8.81526 329.748 220.361)" fill="#DCE2EE"/>
<circle cx="338.944" cy="279.652" r="5" transform="rotate(-8.81526 338.944 279.652)" fill="#DCE2EE"/>
<circle cx="348.139" cy="338.943" r="5" transform="rotate(-8.81526 348.139 338.943)" fill="#DCE2EE"/>
<circle cx="357.332" cy="398.234" r="5" transform="rotate(-8.81526 357.332 398.234)" fill="#DCE2EE"/>
<circle cx="361.455" cy="33.2921" r="5" transform="rotate(-8.81526 361.455 33.2921)" fill="#DCE2EE"/>
<circle cx="370.651" cy="92.5834" r="5" transform="rotate(-8.81526 370.651 92.5834)" fill="#DCE2EE"/>
<circle cx="379.844" cy="151.875" r="5" transform="rotate(-8.81526 379.844 151.875)" fill="#DCE2EE"/>
<circle cx="389.039" cy="211.166" r="5" transform="rotate(-8.81526 389.039 211.166)" fill="#DCE2EE"/>
<circle cx="398.235" cy="270.457" r="5" transform="rotate(-8.81526 398.235 270.457)" fill="#DCE2EE"/>
<circle cx="407.43" cy="329.748" r="5" transform="rotate(-8.81526 407.43 329.748)" fill="#DCE2EE"/>
<circle cx="416.625" cy="389.04" r="5" transform="rotate(-8.81526 416.625 389.04)" fill="#DCE2EE"/>
<circle cx="420.746" cy="24.0973" r="5" transform="rotate(-8.81526 420.746 24.0973)" fill="#DCE2EE"/>
<circle cx="429.942" cy="83.3886" r="5" transform="rotate(-8.81526 429.942 83.3886)" fill="#DCE2EE"/>
<circle cx="439.135" cy="142.68" r="5" transform="rotate(-8.81526 439.135 142.68)" fill="#DCE2EE"/>
<circle cx="448.33" cy="201.971" r="5" transform="rotate(-8.81526 448.33 201.971)" fill="#DCE2EE"/>
<circle cx="457.526" cy="261.262" r="5" transform="rotate(-8.81526 457.526 261.262)" fill="#DCE2EE"/>
<circle cx="466.721" cy="320.554" r="5" transform="rotate(-8.81526 466.721 320.554)" fill="#DCE2EE"/>
<circle cx="475.916" cy="379.845" r="5" transform="rotate(-8.81526 475.916 379.845)" fill="#DCE2EE"/>
<circle cx="480.037" cy="14.9022" r="5" transform="rotate(-8.81526 480.037 14.9022)" fill="#DCE2EE"/>
<circle cx="489.233" cy="74.1935" r="5" transform="rotate(-8.81526 489.233 74.1935)" fill="#DCE2EE"/>
<circle cx="498.428" cy="133.485" r="5" transform="rotate(-8.81526 498.428 133.485)" fill="#DCE2EE"/>
<circle cx="507.621" cy="192.776" r="5" transform="rotate(-8.81526 507.621 192.776)" fill="#DCE2EE"/>
<circle cx="516.817" cy="252.067" r="5" transform="rotate(-8.81526 516.817 252.067)" fill="#DCE2EE"/>
<circle cx="526.012" cy="311.359" r="5" transform="rotate(-8.81526 526.012 311.359)" fill="#DCE2EE"/>
<circle cx="535.207" cy="370.65" r="5" transform="rotate(-8.81526 535.207 370.65)" fill="#DCE2EE"/>
<circle cx="539.328" cy="5.70741" r="5" transform="rotate(-8.81526 539.328 5.70741)" fill="#DCE2EE"/>
<circle cx="548.524" cy="64.9987" r="5" transform="rotate(-8.81526 548.524 64.9987)" fill="#DCE2EE"/>
<circle cx="557.719" cy="124.29" r="5" transform="rotate(-8.81526 557.719 124.29)" fill="#DCE2EE"/>
<circle cx="566.914" cy="183.581" r="5" transform="rotate(-8.81526 566.914 183.581)" fill="#DCE2EE"/>
<circle cx="576.108" cy="242.872" r="5" transform="rotate(-8.81526 576.108 242.872)" fill="#DCE2EE"/>
<circle cx="585.303" cy="302.164" r="5" transform="rotate(-8.81526 585.303 302.164)" fill="#DCE2EE"/>
<circle cx="594.498" cy="361.455" r="5" transform="rotate(-8.81526 594.498 361.455)" fill="#DCE2EE"/>
</svg>
