<svg width="471" height="226" viewBox="0 0 471 226" fill="none" xmlns="http://www.w3.org/2000/svg">
<g filter="url(#filter0_d_10_696)">
<rect x="52.9736" y="34.9829" width="365.026" height="119.759" rx="18.2059" fill="white"/>
</g>
<ellipse cx="369.617" cy="114.503" rx="18.6825" ry="19.1615" fill="#D8F9ED"/>
<circle cx="122.913" cy="98.2159" r="29.7003" fill="#D8F9ED"/>
<path d="M211.097 70.8306L206.371 79.9426V84.8091H203.567V79.9426L198.821 70.8306H201.985L204.989 77.219L207.973 70.8306H211.097ZM217.641 84.9893C216.573 84.9893 215.611 84.7557 214.757 84.2884C213.902 83.8078 213.228 83.1335 212.734 82.2657C212.253 81.3979 212.013 80.3966 212.013 79.2617C212.013 78.1269 212.26 77.1256 212.754 76.2578C213.261 75.39 213.949 74.7224 214.817 74.2551C215.685 73.7745 216.653 73.5342 217.721 73.5342C218.789 73.5342 219.757 73.7745 220.625 74.2551C221.492 74.7224 222.173 75.39 222.667 76.2578C223.175 77.1256 223.428 78.1269 223.428 79.2617C223.428 80.3966 223.168 81.3979 222.647 82.2657C222.14 83.1335 221.446 83.8078 220.564 84.2884C219.697 84.7557 218.722 84.9893 217.641 84.9893ZM217.641 82.5461C218.148 82.5461 218.622 82.4259 219.062 82.1856C219.516 81.9319 219.877 81.5581 220.144 81.0641C220.411 80.5701 220.544 79.9694 220.544 79.2617C220.544 78.207 220.264 77.3993 219.703 76.8385C219.156 76.2645 218.482 75.9774 217.681 75.9774C216.88 75.9774 216.205 76.2645 215.658 76.8385C215.124 77.3993 214.857 78.207 214.857 79.2617C214.857 80.3165 215.117 81.1309 215.638 81.705C216.172 82.2657 216.84 82.5461 217.641 82.5461ZM235.959 73.7144V84.8091H233.135V83.4072C232.775 83.8879 232.301 84.2684 231.713 84.5487C231.139 84.8158 230.512 84.9493 229.831 84.9493C228.963 84.9493 228.195 84.769 227.528 84.4086C226.86 84.0347 226.333 83.494 225.945 82.7864C225.572 82.0655 225.385 81.211 225.385 80.223V73.7144H228.188V79.8225C228.188 80.7037 228.409 81.3846 228.849 81.8652C229.29 82.3325 229.891 82.5661 230.652 82.5661C231.426 82.5661 232.034 82.3325 232.474 81.8652C232.915 81.3846 233.135 80.7037 233.135 79.8225V73.7144H235.959ZM241.529 75.4367C241.889 74.8493 242.356 74.3886 242.931 74.0549C243.518 73.7211 244.186 73.5542 244.933 73.5542V76.4981H244.192C243.311 76.4981 242.644 76.705 242.19 77.1189C241.749 77.5328 241.529 78.2538 241.529 79.2818V84.8091H238.725V73.7144H241.529V75.4367ZM250.873 79.2217C250.873 78.1002 251.093 77.1056 251.534 76.2378C251.987 75.3699 252.595 74.7024 253.356 74.2351C254.13 73.7678 254.991 73.5342 255.939 73.5342C256.767 73.5342 257.488 73.7011 258.102 74.0348C258.73 74.3686 259.23 74.7892 259.604 75.2965V73.7144H262.428V84.8091H259.604V83.1869C259.244 83.7076 258.743 84.1415 258.102 84.4887C257.475 84.8224 256.747 84.9893 255.919 84.9893C254.985 84.9893 254.13 84.749 253.356 84.2684C252.595 83.7877 251.987 83.1135 251.534 82.2457C251.093 81.3645 250.873 80.3565 250.873 79.2217ZM259.604 79.2617C259.604 78.5808 259.471 78.0001 259.204 77.5194C258.937 77.0255 258.576 76.6516 258.122 76.398C257.668 76.1309 257.181 75.9974 256.66 75.9974C256.14 75.9974 255.659 76.1243 255.218 76.3779C254.778 76.6316 254.417 77.0054 254.137 77.4994C253.87 77.9801 253.736 78.5541 253.736 79.2217C253.736 79.8892 253.87 80.4767 254.137 80.984C254.417 81.478 254.778 81.8585 255.218 82.1255C255.672 82.3926 256.153 82.5261 256.66 82.5261C257.181 82.5261 257.668 82.3992 258.122 82.1456C258.576 81.8785 258.937 81.5047 259.204 81.0241C259.471 80.5301 259.604 79.9426 259.604 79.2617ZM271.314 73.5542C272.636 73.5542 273.704 73.9748 274.519 74.8159C275.333 75.6436 275.74 76.8052 275.74 78.3005V84.8091H272.936V78.681C272.936 77.7998 272.716 77.1256 272.276 76.6583C271.835 76.1777 271.234 75.9374 270.473 75.9374C269.699 75.9374 269.085 76.1777 268.631 76.6583C268.19 77.1256 267.97 77.7998 267.97 78.681V84.8091H265.166V73.7144H267.97V75.0962C268.344 74.6156 268.818 74.2418 269.392 73.9748C269.979 73.6944 270.62 73.5542 271.314 73.5542ZM282.652 84.9893C281.744 84.9893 280.93 84.8291 280.209 84.5087C279.488 84.1749 278.914 83.7277 278.486 83.1669C278.073 82.6062 277.846 81.9853 277.806 81.3044H280.629C280.683 81.7317 280.89 82.0855 281.25 82.3659C281.624 82.6462 282.085 82.7864 282.632 82.7864C283.166 82.7864 283.58 82.6796 283.874 82.466C284.181 82.2524 284.334 81.9787 284.334 81.6449C284.334 81.2844 284.147 81.0174 283.773 80.8438C283.413 80.6569 282.832 80.4567 282.031 80.243C281.203 80.0428 280.523 79.8358 279.988 79.6222C279.468 79.4086 279.014 79.0815 278.627 78.6409C278.253 78.2003 278.066 77.6062 278.066 76.8586C278.066 76.2444 278.239 75.6837 278.587 75.1763C278.947 74.669 279.454 74.2685 280.109 73.9748C280.776 73.681 281.557 73.5342 282.452 73.5342C283.773 73.5342 284.828 73.868 285.616 74.5355C286.404 75.1897 286.838 76.0775 286.918 77.199H284.234C284.194 76.7584 284.007 76.4113 283.673 76.1576C283.353 75.8906 282.919 75.7571 282.372 75.7571C281.864 75.7571 281.47 75.8506 281.19 76.0375C280.923 76.2244 280.79 76.4847 280.79 76.8185C280.79 77.1923 280.976 77.4794 281.35 77.6797C281.724 77.8666 282.305 78.0602 283.093 78.2604C283.894 78.4607 284.555 78.6676 285.075 78.8812C285.596 79.0949 286.043 79.4286 286.417 79.8826C286.804 80.3232 287.004 80.9106 287.018 81.6449C287.018 82.2857 286.838 82.8598 286.477 83.3672C286.13 83.8745 285.623 84.275 284.955 84.5688C284.301 84.8491 283.533 84.9893 282.652 84.9893ZM304.7 73.7144L301.455 84.8091H298.431L296.409 77.0588L294.386 84.8091H291.342L288.078 73.7144H290.921L292.884 82.1656L295.007 73.7144H297.971L300.053 82.1456L302.016 73.7144H304.7ZM316.53 79.0214C316.53 79.422 316.504 79.7824 316.45 80.1029H308.339C308.406 80.9039 308.687 81.5314 309.18 81.9853C309.674 82.4393 310.282 82.6662 311.003 82.6662C312.044 82.6662 312.785 82.219 313.226 81.3245H316.25C315.929 82.3926 315.315 83.2737 314.407 83.968C313.5 84.6489 312.385 84.9893 311.063 84.9893C309.995 84.9893 309.034 84.7557 308.179 84.2884C307.338 83.8078 306.677 83.1335 306.197 82.2657C305.729 81.3979 305.496 80.3966 305.496 79.2617C305.496 78.1136 305.729 77.1056 306.197 76.2378C306.664 75.3699 307.318 74.7024 308.159 74.2351C309 73.7678 309.968 73.5342 311.063 73.5342C312.118 73.5342 313.059 73.7611 313.887 74.2151C314.728 74.669 315.375 75.3165 315.829 76.1576C316.297 76.9854 316.53 77.94 316.53 79.0214ZM313.626 78.2204C313.613 77.4994 313.353 76.9253 312.845 76.4981C312.338 76.0575 311.717 75.8372 310.983 75.8372C310.289 75.8372 309.701 76.0508 309.221 76.4781C308.753 76.892 308.466 77.4727 308.359 78.2204H313.626ZM321.38 75.4367C321.741 74.8493 322.208 74.3886 322.782 74.0549C323.37 73.7211 324.037 73.5542 324.785 73.5542V76.4981H324.044C323.163 76.4981 322.495 76.705 322.041 77.1189C321.601 77.5328 321.38 78.2538 321.38 79.2818V84.8091H318.577V73.7144H321.38V75.4367ZM346.826 73.7144L343.581 84.8091H340.557L338.535 77.0588L336.512 84.8091H333.468L330.204 73.7144H333.047L335.01 82.1656L337.133 73.7144H340.097L342.179 82.1456L344.142 73.7144H346.826ZM347.622 79.2217C347.622 78.1002 347.842 77.1056 348.283 76.2378C348.736 75.3699 349.344 74.7024 350.105 74.2351C350.879 73.7678 351.74 73.5342 352.688 73.5342C353.516 73.5342 354.237 73.7011 354.851 74.0348C355.479 74.3686 355.979 74.7892 356.353 75.2965V73.7144H359.177V84.8091H356.353V83.1869C355.993 83.7076 355.492 84.1415 354.851 84.4887C354.224 84.8224 353.496 84.9893 352.668 84.9893C351.734 84.9893 350.879 84.749 350.105 84.2684C349.344 83.7877 348.736 83.1135 348.283 82.2457C347.842 81.3645 347.622 80.3565 347.622 79.2217ZM356.353 79.2617C356.353 78.5808 356.22 78.0001 355.953 77.5194C355.686 77.0255 355.325 76.6516 354.871 76.398C354.417 76.1309 353.93 75.9974 353.409 75.9974C352.889 75.9974 352.408 76.1243 351.967 76.3779C351.527 76.6316 351.166 77.0054 350.886 77.4994C350.619 77.9801 350.485 78.5541 350.485 79.2217C350.485 79.8892 350.619 80.4767 350.886 80.984C351.166 81.478 351.527 81.8585 351.967 82.1255C352.421 82.3926 352.902 82.5261 353.409 82.5261C353.93 82.5261 354.417 82.3992 354.871 82.1456C355.325 81.8785 355.686 81.5047 355.953 81.0241C356.22 80.5301 356.353 79.9426 356.353 79.2617ZM366.161 84.9893C365.253 84.9893 364.439 84.8291 363.718 84.5087C362.997 84.1749 362.423 83.7277 361.995 83.1669C361.581 82.6062 361.354 81.9853 361.314 81.3044H364.138C364.192 81.7317 364.398 82.0855 364.759 82.3659C365.133 82.6462 365.593 82.7864 366.141 82.7864C366.675 82.7864 367.089 82.6796 367.382 82.466C367.689 82.2524 367.843 81.9787 367.843 81.6449C367.843 81.2844 367.656 81.0174 367.282 80.8438C366.922 80.6569 366.341 80.4567 365.54 80.243C364.712 80.0428 364.031 79.8358 363.497 79.6222C362.977 79.4086 362.523 79.0815 362.135 78.6409C361.762 78.2003 361.575 77.6062 361.575 76.8586C361.575 76.2444 361.748 75.6837 362.095 75.1763C362.456 74.669 362.963 74.2685 363.617 73.9748C364.285 73.681 365.066 73.5342 365.961 73.5342C367.282 73.5342 368.337 73.868 369.125 74.5355C369.912 75.1897 370.346 76.0775 370.426 77.199H367.743C367.703 76.7584 367.516 76.4113 367.182 76.1576C366.862 75.8906 366.428 75.7571 365.88 75.7571C365.373 75.7571 364.979 75.8506 364.699 76.0375C364.432 76.2244 364.298 76.4847 364.298 76.8185C364.298 77.1923 364.485 77.4794 364.859 77.6797C365.233 77.8666 365.814 78.0602 366.601 78.2604C367.402 78.4607 368.063 78.6676 368.584 78.8812C369.105 79.0949 369.552 79.4286 369.926 79.8826C370.313 80.3232 370.513 80.9106 370.527 81.6449C370.527 82.2857 370.346 82.8598 369.986 83.3672C369.639 83.8745 369.131 84.275 368.464 84.5688C367.81 84.8491 367.042 84.9893 366.161 84.9893ZM204.228 116.989C203.32 116.989 202.506 116.829 201.785 116.509C201.064 116.175 200.49 115.728 200.063 115.167C199.649 114.606 199.422 113.985 199.382 113.304H202.205C202.259 113.732 202.466 114.085 202.826 114.366C203.2 114.646 203.661 114.786 204.208 114.786C204.742 114.786 205.156 114.68 205.45 114.466C205.757 114.252 205.91 113.979 205.91 113.645C205.91 113.284 205.723 113.017 205.35 112.844C204.989 112.657 204.408 112.457 203.607 112.243C202.779 112.043 202.099 111.836 201.565 111.622C201.044 111.409 200.59 111.082 200.203 110.641C199.829 110.2 199.642 109.606 199.642 108.859C199.642 108.244 199.816 107.684 200.163 107.176C200.523 106.669 201.03 106.268 201.685 105.975C202.352 105.681 203.133 105.534 204.028 105.534C205.35 105.534 206.404 105.868 207.192 106.536C207.98 107.19 208.414 108.078 208.494 109.199H205.81C205.77 108.758 205.583 108.411 205.249 108.158C204.929 107.891 204.495 107.757 203.948 107.757C203.44 107.757 203.046 107.851 202.766 108.037C202.499 108.224 202.366 108.485 202.366 108.819C202.366 109.192 202.552 109.479 202.926 109.68C203.3 109.867 203.881 110.06 204.669 110.26C205.47 110.461 206.131 110.668 206.651 110.881C207.172 111.095 207.619 111.429 207.993 111.883C208.38 112.323 208.58 112.911 208.594 113.645C208.594 114.286 208.414 114.86 208.053 115.367C207.706 115.875 207.199 116.275 206.531 116.569C205.877 116.849 205.109 116.989 204.228 116.989ZM221.209 111.021C221.209 111.422 221.182 111.782 221.129 112.103H213.018C213.085 112.904 213.365 113.531 213.859 113.985C214.353 114.439 214.961 114.666 215.682 114.666C216.723 114.666 217.464 114.219 217.905 113.324H220.929C220.608 114.393 219.994 115.274 219.086 115.968C218.178 116.649 217.063 116.989 215.742 116.989C214.674 116.989 213.712 116.756 212.858 116.288C212.017 115.808 211.356 115.134 210.875 114.266C210.408 113.398 210.174 112.397 210.174 111.262C210.174 110.114 210.408 109.106 210.875 108.238C211.343 107.37 211.997 106.702 212.838 106.235C213.679 105.768 214.647 105.534 215.742 105.534C216.796 105.534 217.738 105.761 218.565 106.215C219.407 106.669 220.054 107.317 220.508 108.158C220.975 108.985 221.209 109.94 221.209 111.021ZM218.305 110.22C218.292 109.499 218.031 108.925 217.524 108.498C217.017 108.058 216.396 107.837 215.662 107.837C214.967 107.837 214.38 108.051 213.899 108.478C213.432 108.892 213.145 109.473 213.038 110.22H218.305ZM229.403 105.554C230.725 105.554 231.793 105.975 232.608 106.816C233.422 107.644 233.829 108.805 233.829 110.3V116.809H231.026V110.681C231.026 109.8 230.805 109.126 230.365 108.658C229.924 108.178 229.323 107.937 228.562 107.937C227.788 107.937 227.174 108.178 226.72 108.658C226.279 109.126 226.059 109.8 226.059 110.681V116.809H223.255V105.714H226.059V107.096C226.433 106.616 226.907 106.242 227.481 105.975C228.068 105.694 228.709 105.554 229.403 105.554ZM239.76 108.017V113.385C239.76 113.758 239.847 114.032 240.02 114.206C240.207 114.366 240.514 114.446 240.941 114.446H242.243V116.809H240.481C238.118 116.809 236.936 115.661 236.936 113.365V108.017H235.614V105.714H236.936V102.971H239.76V105.714H242.243V108.017H239.76ZM253.277 116.989C252.369 116.989 251.555 116.829 250.834 116.509C250.113 116.175 249.539 115.728 249.112 115.167C248.698 114.606 248.471 113.985 248.431 113.304H251.255C251.308 113.732 251.515 114.085 251.875 114.366C252.249 114.646 252.71 114.786 253.257 114.786C253.791 114.786 254.205 114.68 254.499 114.466C254.806 114.252 254.959 113.979 254.959 113.645C254.959 113.284 254.773 113.017 254.399 112.844C254.038 112.657 253.457 112.457 252.656 112.243C251.829 112.043 251.148 111.836 250.614 111.622C250.093 111.409 249.639 111.082 249.252 110.641C248.878 110.2 248.691 109.606 248.691 108.859C248.691 108.244 248.865 107.684 249.212 107.176C249.572 106.669 250.08 106.268 250.734 105.975C251.401 105.681 252.182 105.534 253.077 105.534C254.399 105.534 255.453 105.868 256.241 106.536C257.029 107.19 257.463 108.078 257.543 109.199H254.859C254.819 108.758 254.632 108.411 254.299 108.158C253.978 107.891 253.544 107.757 252.997 107.757C252.49 107.757 252.096 107.851 251.815 108.037C251.548 108.224 251.415 108.485 251.415 108.819C251.415 109.192 251.602 109.479 251.976 109.68C252.349 109.867 252.93 110.06 253.718 110.26C254.519 110.461 255.18 110.668 255.7 110.881C256.221 111.095 256.668 111.429 257.042 111.883C257.429 112.323 257.63 112.911 257.643 113.645C257.643 114.286 257.463 114.86 257.102 115.367C256.755 115.875 256.248 116.275 255.58 116.569C254.926 116.849 254.158 116.989 253.277 116.989ZM270.418 105.714V116.809H267.595V115.407C267.234 115.888 266.76 116.268 266.173 116.549C265.599 116.816 264.971 116.949 264.29 116.949C263.422 116.949 262.655 116.769 261.987 116.409C261.32 116.035 260.792 115.494 260.405 114.786C260.031 114.065 259.844 113.211 259.844 112.223V105.714H262.648V111.822C262.648 112.704 262.868 113.385 263.309 113.865C263.75 114.332 264.35 114.566 265.111 114.566C265.886 114.566 266.493 114.332 266.934 113.865C267.374 113.385 267.595 112.704 267.595 111.822V105.714H270.418ZM272.464 111.262C272.464 110.114 272.697 109.112 273.165 108.258C273.632 107.39 274.279 106.722 275.107 106.255C275.935 105.774 276.883 105.534 277.951 105.534C279.326 105.534 280.461 105.881 281.355 106.576C282.263 107.256 282.871 108.218 283.178 109.459H280.154C279.994 108.979 279.72 108.605 279.333 108.338C278.959 108.058 278.492 107.917 277.931 107.917C277.13 107.917 276.496 108.211 276.028 108.798C275.561 109.373 275.327 110.194 275.327 111.262C275.327 112.316 275.561 113.138 276.028 113.725C276.496 114.299 277.13 114.586 277.931 114.586C279.066 114.586 279.807 114.079 280.154 113.064H283.178C282.871 114.266 282.263 115.22 281.355 115.928C280.448 116.636 279.313 116.989 277.951 116.989C276.883 116.989 275.935 116.756 275.107 116.288C274.279 115.808 273.632 115.14 273.165 114.286C272.697 113.418 272.464 112.41 272.464 111.262ZM284.511 111.262C284.511 110.114 284.744 109.112 285.212 108.258C285.679 107.39 286.327 106.722 287.154 106.255C287.982 105.774 288.93 105.534 289.998 105.534C291.373 105.534 292.508 105.881 293.403 106.576C294.31 107.256 294.918 108.218 295.225 109.459H292.201C292.041 108.979 291.767 108.605 291.38 108.338C291.006 108.058 290.539 107.917 289.978 107.917C289.177 107.917 288.543 108.211 288.076 108.798C287.608 109.373 287.375 110.194 287.375 111.262C287.375 112.316 287.608 113.138 288.076 113.725C288.543 114.299 289.177 114.586 289.978 114.586C291.113 114.586 291.854 114.079 292.201 113.064H295.225C294.918 114.266 294.31 115.22 293.403 115.928C292.495 116.636 291.36 116.989 289.998 116.989C288.93 116.989 287.982 116.756 287.154 116.288C286.327 115.808 285.679 115.14 285.212 114.286C284.744 113.418 284.511 112.41 284.511 111.262ZM307.593 111.021C307.593 111.422 307.566 111.782 307.513 112.103H299.402C299.469 112.904 299.749 113.531 300.243 113.985C300.737 114.439 301.344 114.666 302.065 114.666C303.107 114.666 303.848 114.219 304.288 113.324H307.312C306.992 114.393 306.378 115.274 305.47 115.968C304.562 116.649 303.447 116.989 302.125 116.989C301.057 116.989 300.096 116.756 299.242 116.288C298.4 115.808 297.74 115.134 297.259 114.266C296.792 113.398 296.558 112.397 296.558 111.262C296.558 110.114 296.792 109.106 297.259 108.238C297.726 107.37 298.38 106.702 299.222 106.235C300.063 105.768 301.031 105.534 302.125 105.534C303.18 105.534 304.121 105.761 304.949 106.215C305.79 106.669 306.438 107.317 306.892 108.158C307.359 108.985 307.593 109.94 307.593 111.021ZM304.689 110.22C304.675 109.499 304.415 108.925 303.908 108.498C303.4 108.058 302.78 107.837 302.045 107.837C301.351 107.837 300.764 108.051 300.283 108.478C299.816 108.892 299.529 109.473 299.422 110.22H304.689ZM313.885 116.989C312.977 116.989 312.162 116.829 311.441 116.509C310.721 116.175 310.146 115.728 309.719 115.167C309.305 114.606 309.078 113.985 309.038 113.304H311.862C311.915 113.732 312.122 114.085 312.483 114.366C312.857 114.646 313.317 114.786 313.865 114.786C314.399 114.786 314.813 114.68 315.106 114.466C315.413 114.252 315.567 113.979 315.567 113.645C315.567 113.284 315.38 113.017 315.006 112.844C314.646 112.657 314.065 112.457 313.264 112.243C312.436 112.043 311.755 111.836 311.221 111.622C310.7 111.409 310.247 111.082 309.859 110.641C309.486 110.2 309.299 109.606 309.299 108.859C309.299 108.244 309.472 107.684 309.819 107.176C310.18 106.669 310.687 106.268 311.341 105.975C312.009 105.681 312.79 105.534 313.684 105.534C315.006 105.534 316.061 105.868 316.849 106.536C317.636 107.19 318.07 108.078 318.15 109.199H315.467C315.427 108.758 315.24 108.411 314.906 108.158C314.586 107.891 314.152 107.757 313.604 107.757C313.097 107.757 312.703 107.851 312.423 108.037C312.156 108.224 312.022 108.485 312.022 108.819C312.022 109.192 312.209 109.479 312.583 109.68C312.957 109.867 313.538 110.06 314.325 110.26C315.126 110.461 315.787 110.668 316.308 110.881C316.829 111.095 317.276 111.429 317.65 111.883C318.037 112.323 318.237 112.911 318.25 113.645C318.25 114.286 318.07 114.86 317.71 115.367C317.363 115.875 316.855 116.275 316.188 116.569C315.534 116.849 314.766 116.989 313.885 116.989ZM324.798 116.989C323.89 116.989 323.075 116.829 322.354 116.509C321.633 116.175 321.059 115.728 320.632 115.167C320.218 114.606 319.991 113.985 319.951 113.304H322.775C322.828 113.732 323.035 114.085 323.396 114.366C323.77 114.646 324.23 114.786 324.778 114.786C325.312 114.786 325.725 114.68 326.019 114.466C326.326 114.252 326.48 113.979 326.48 113.645C326.48 113.284 326.293 113.017 325.919 112.844C325.559 112.657 324.978 112.457 324.177 112.243C323.349 112.043 322.668 111.836 322.134 111.622C321.613 111.409 321.159 111.082 320.772 110.641C320.398 110.2 320.211 109.606 320.211 108.859C320.211 108.244 320.385 107.684 320.732 107.176C321.093 106.669 321.6 106.268 322.254 105.975C322.922 105.681 323.703 105.534 324.597 105.534C325.919 105.534 326.974 105.868 327.761 106.536C328.549 107.19 328.983 108.078 329.063 109.199H326.38C326.34 108.758 326.153 108.411 325.819 108.158C325.498 107.891 325.065 107.757 324.517 107.757C324.01 107.757 323.616 107.851 323.336 108.037C323.069 108.224 322.935 108.485 322.935 108.819C322.935 109.192 323.122 109.479 323.496 109.68C323.87 109.867 324.45 110.06 325.238 110.26C326.039 110.461 326.7 110.668 327.221 110.881C327.741 111.095 328.189 111.429 328.563 111.883C328.95 112.323 329.15 112.911 329.163 113.645C329.163 114.286 328.983 114.86 328.623 115.367C328.275 115.875 327.768 116.275 327.101 116.569C326.446 116.849 325.679 116.989 324.798 116.989ZM336.552 108.017H334.609V116.809H331.765V108.017H330.504V105.714H331.765V105.154C331.765 103.792 332.152 102.791 332.927 102.15C333.701 101.509 334.869 101.208 336.431 101.249V103.612C335.75 103.598 335.276 103.712 335.009 103.952C334.742 104.192 334.609 104.626 334.609 105.254V105.714H336.552V108.017ZM348.842 105.714V116.809H346.019V115.407C345.658 115.888 345.184 116.268 344.597 116.549C344.023 116.816 343.395 116.949 342.714 116.949C341.846 116.949 341.079 116.769 340.411 116.409C339.744 116.035 339.216 115.494 338.829 114.786C338.455 114.065 338.268 113.211 338.268 112.223V105.714H341.072V111.822C341.072 112.704 341.292 113.385 341.733 113.865C342.173 114.332 342.774 114.566 343.535 114.566C344.31 114.566 344.917 114.332 345.358 113.865C345.798 113.385 346.019 112.704 346.019 111.822V105.714H348.842ZM354.412 101.989V116.809H351.609V101.989H354.412ZM359.986 101.989V116.809H357.182V101.989H359.986ZM373.37 105.714L366.501 122.056H363.517L365.92 116.529L361.474 105.714H364.619L367.482 113.465L370.386 105.714H373.37Z" fill="#41BE90"/>
<g clip-path="url(#clip0_10_696)">
<path d="M154.748 75.8718L113.018 78.9757C111.26 79.1064 109.752 80.2008 109.082 81.8315C108.413 83.4623 108.717 85.3008 109.875 86.6293L119.027 97.1216L134.063 89.53C134.754 89.1806 135.599 89.4583 135.948 90.1503C136.297 90.8422 136.02 91.6864 135.328 92.0357L120.292 99.6274L123.302 113.221C123.683 114.942 124.982 116.278 126.691 116.707C128.405 117.137 130.179 116.57 131.326 115.236L158.6 83.4996C159.841 82.0547 160.079 80.1006 159.221 78.3999C158.362 76.6991 156.648 75.7303 154.748 75.8718Z" fill="#41BE90"/>
</g>
<line x1="90.5244" y1="105.115" x2="110.323" y2="95.119" stroke="#41BE90" stroke-width="2.73088" stroke-linecap="round"/>
<line x1="99.957" y1="106.793" x2="112.914" y2="100.251" stroke="#FBA333" stroke-width="2.73088" stroke-linecap="round"/>
<line x1="108.534" y1="108.901" x2="115.504" y2="105.382" stroke="#41BE90" stroke-width="2.73088" stroke-linecap="round"/>
<defs>
<filter id="filter0_d_10_696" x="0.176575" y="0.391735" width="470.62" height="225.353" filterUnits="userSpaceOnUse" color-interpolation-filters="sRGB">
<feFlood flood-opacity="0" result="BackgroundImageFix"/>
<feColorMatrix in="SourceAlpha" type="matrix" values="0 0 0 0 0 0 0 0 0 0 0 0 0 0 0 0 0 0 127 0" result="hardAlpha"/>
<feOffset dy="18.2059"/>
<feGaussianBlur stdDeviation="26.3985"/>
<feColorMatrix type="matrix" values="0 0 0 0 0.156 0 0 0 0 0.167093 0 0 0 0 0.433333 0 0 0 0.08 0"/>
<feBlend mode="normal" in2="BackgroundImageFix" result="effect1_dropShadow_10_696"/>
<feBlend mode="normal" in="SourceGraphic" in2="effect1_dropShadow_10_696" result="shape"/>
</filter>
<clipPath id="clip0_10_696">
<rect width="47.9037" height="47.9037" fill="white" transform="translate(105.663 78.6094) rotate(-26.7895)"/>
</clipPath>
</defs>
</svg>
