<svg width="75" height="58" viewBox="0 0 75 58" fill="none" xmlns="http://www.w3.org/2000/svg">
<path d="M37.9654 -20.0498C39.9181 -22.0024 43.0831 -22.0024 45.0358 -20.0498L78.0504 12.9648C80.003 14.9175 80.003 18.0825 78.0504 20.0352L45.0358 53.0498C43.0831 55.0024 39.9181 55.0024 37.9654 53.0498L4.9508 20.0352C2.99817 18.0825 2.99817 14.9175 4.9508 12.9648L37.9654 -20.0498Z" stroke="#00FFF0" stroke-width="2"/>
<path d="M40.1436 4.53594V8.91994H34.1916V26.9999H28.7196V8.91994H22.7676V4.53594H40.1436ZM54.7939 27.2239C52.6819 27.2239 50.7405 26.7332 48.9699 25.7519C47.2205 24.7706 45.8232 23.4052 44.7779 21.6559C43.7539 19.8852 43.2419 17.9012 43.2419 15.7039C43.2419 13.5066 43.7539 11.5332 44.7779 9.78394C45.8232 8.03464 47.2205 6.66924 48.9699 5.68794C50.7405 4.70664 52.6819 4.21594 54.7939 4.21594C56.9059 4.21594 58.8365 4.70664 60.5859 5.68794C62.3565 6.66924 63.7432 8.03464 64.7459 9.78394C65.7699 11.5332 66.2819 13.5066 66.2819 15.7039C66.2819 17.9012 65.7699 19.8852 64.7459 21.6559C63.7219 23.4052 62.3352 24.7706 60.5859 25.7519C58.8365 26.7332 56.9059 27.2239 54.7939 27.2239ZM54.7939 22.2319C56.5859 22.2319 58.0152 21.6346 59.0819 20.4399C60.1699 19.2452 60.7139 17.6666 60.7139 15.7039C60.7139 13.7199 60.1699 12.1412 59.0819 10.9679C58.0152 9.77324 56.5859 9.17594 54.7939 9.17594C52.9805 9.17594 51.5299 9.76264 50.4419 10.9359C49.3752 12.1092 48.8419 13.6986 48.8419 15.7039C48.8419 17.6879 49.3752 19.2772 50.4419 20.4719C51.5299 21.6452 52.9805 22.2319 54.7939 22.2319ZM86.7661 4.53594V8.91994H80.8141V26.9999H75.3421V8.91994H69.3901V4.53594H86.7661ZM89.8643 15.7359C89.8643 13.5172 90.3443 11.5439 91.3043 9.81594C92.2643 8.06664 93.5977 6.71194 95.3043 5.75194C97.0323 4.77064 98.9843 4.27994 101.161 4.27994C103.827 4.27994 106.11 4.98394 108.009 6.39194C109.907 7.79994 111.177 9.71994 111.817 12.1519H105.801C105.353 11.2132 104.713 10.4986 103.881 10.0079C103.07 9.51724 102.142 9.27194 101.097 9.27194C99.411 9.27194 98.0457 9.85864 97.0003 11.0319C95.955 12.2052 95.4323 13.7732 95.4323 15.7359C95.4323 17.6986 95.955 19.2666 97.0003 20.4399C98.0457 21.6132 99.411 22.1999 101.097 22.1999C102.142 22.1999 103.07 21.9546 103.881 21.4639C104.713 20.9732 105.353 20.2586 105.801 19.3199H111.817C111.177 21.7519 109.907 23.6719 108.009 25.0799C106.11 26.4666 103.827 27.1599 101.161 27.1599C98.9843 27.1599 97.0323 26.6799 95.3043 25.7199C93.5977 24.7386 92.2643 23.3839 91.3043 21.6559C90.3443 19.9279 89.8643 17.9546 89.8643 15.7359Z" fill="white"/>
</svg>
